<mxfile host="app.diagrams.net" agent="Mozilla/5.0 (X11; Ubuntu; Linux x86_64; rv:133.0) Gecko/20100101 Firefox/133.0" version="26.0.6">
  <diagram name="Page-1" id="noIDNAKQfyHChgqBvEkh">
    <mxGraphModel dx="1364" dy="795" grid="1" gridSize="10" guides="1" tooltips="1" connect="1" arrows="1" fold="1" page="1" pageScale="1" pageWidth="827" pageHeight="1169" math="0" shadow="0">
      <root>
        <mxCell id="0" />
        <mxCell id="1" parent="0" />
        <mxCell id="9vF3Fy3m6nXQh0ZgnIpm-1" value="SATEL -VL53L8CX" style="swimlane;fontStyle=0;childLayout=stackLayout;horizontal=1;startSize=30;horizontalStack=0;resizeParent=1;resizeParentMax=0;resizeLast=0;collapsible=1;marginBottom=0;whiteSpace=wrap;html=1;align=center;" vertex="1" parent="1">
          <mxGeometry x="40" y="40" width="130" height="240" as="geometry" />
        </mxCell>
        <mxCell id="9vF3Fy3m6nXQh0ZgnIpm-2" value="&lt;div&gt;5V&lt;/div&gt;" style="text;strokeColor=none;fillColor=none;align=right;verticalAlign=middle;spacingLeft=4;spacingRight=4;overflow=hidden;points=[[0,0.5],[1,0.5]];portConstraint=eastwest;rotatable=0;whiteSpace=wrap;html=1;" vertex="1" parent="9vF3Fy3m6nXQh0ZgnIpm-1">
          <mxGeometry y="30" width="130" height="30" as="geometry" />
        </mxCell>
        <mxCell id="9vF3Fy3m6nXQh0ZgnIpm-4" value="SDA" style="text;strokeColor=none;fillColor=none;align=right;verticalAlign=middle;spacingLeft=4;spacingRight=4;overflow=hidden;points=[[0,0.5],[1,0.5]];portConstraint=eastwest;rotatable=0;whiteSpace=wrap;html=1;" vertex="1" parent="9vF3Fy3m6nXQh0ZgnIpm-1">
          <mxGeometry y="60" width="130" height="30" as="geometry" />
        </mxCell>
        <mxCell id="9vF3Fy3m6nXQh0ZgnIpm-19" value="SCL" style="text;strokeColor=none;fillColor=none;align=right;verticalAlign=middle;spacingLeft=4;spacingRight=4;overflow=hidden;points=[[0,0.5],[1,0.5]];portConstraint=eastwest;rotatable=0;whiteSpace=wrap;html=1;" vertex="1" parent="9vF3Fy3m6nXQh0ZgnIpm-1">
          <mxGeometry y="90" width="130" height="30" as="geometry" />
        </mxCell>
        <mxCell id="9vF3Fy3m6nXQh0ZgnIpm-3" value="PWREN" style="text;strokeColor=none;fillColor=none;align=right;verticalAlign=middle;spacingLeft=4;spacingRight=4;overflow=hidden;points=[[0,0.5],[1,0.5]];portConstraint=eastwest;rotatable=0;whiteSpace=wrap;html=1;" vertex="1" parent="9vF3Fy3m6nXQh0ZgnIpm-1">
          <mxGeometry y="120" width="130" height="30" as="geometry" />
        </mxCell>
        <mxCell id="9vF3Fy3m6nXQh0ZgnIpm-20" value="LPn" style="text;strokeColor=none;fillColor=none;align=right;verticalAlign=middle;spacingLeft=4;spacingRight=4;overflow=hidden;points=[[0,0.5],[1,0.5]];portConstraint=eastwest;rotatable=0;whiteSpace=wrap;html=1;" vertex="1" parent="9vF3Fy3m6nXQh0ZgnIpm-1">
          <mxGeometry y="150" width="130" height="30" as="geometry" />
        </mxCell>
        <mxCell id="9vF3Fy3m6nXQh0ZgnIpm-24" value="SPI_I2C_N" style="text;strokeColor=none;fillColor=none;align=right;verticalAlign=middle;spacingLeft=4;spacingRight=4;overflow=hidden;points=[[0,0.5],[1,0.5]];portConstraint=eastwest;rotatable=0;whiteSpace=wrap;html=1;" vertex="1" parent="9vF3Fy3m6nXQh0ZgnIpm-1">
          <mxGeometry y="180" width="130" height="30" as="geometry" />
        </mxCell>
        <mxCell id="9vF3Fy3m6nXQh0ZgnIpm-21" value="GND" style="text;strokeColor=none;fillColor=none;align=right;verticalAlign=middle;spacingLeft=4;spacingRight=4;overflow=hidden;points=[[0,0.5],[1,0.5]];portConstraint=eastwest;rotatable=0;whiteSpace=wrap;html=1;" vertex="1" parent="9vF3Fy3m6nXQh0ZgnIpm-1">
          <mxGeometry y="210" width="130" height="30" as="geometry" />
        </mxCell>
        <mxCell id="9vF3Fy3m6nXQh0ZgnIpm-5" value="ESP32 - TTGO T-Display" style="swimlane;fontStyle=0;childLayout=stackLayout;horizontal=1;startSize=30;horizontalStack=0;resizeParent=1;resizeParentMax=0;resizeLast=0;collapsible=1;marginBottom=0;whiteSpace=wrap;html=1;" vertex="1" parent="1">
          <mxGeometry x="380" y="40" width="160" height="210" as="geometry" />
        </mxCell>
        <mxCell id="9vF3Fy3m6nXQh0ZgnIpm-62" value="5V" style="text;strokeColor=none;fillColor=none;align=left;verticalAlign=middle;spacingLeft=4;spacingRight=4;overflow=hidden;points=[[0,0.5],[1,0.5]];portConstraint=eastwest;rotatable=0;whiteSpace=wrap;html=1;" vertex="1" parent="9vF3Fy3m6nXQh0ZgnIpm-5">
          <mxGeometry y="30" width="160" height="30" as="geometry" />
        </mxCell>
        <mxCell id="9vF3Fy3m6nXQh0ZgnIpm-28" value="SDA ( 21 )&amp;nbsp;&amp;nbsp;&amp;nbsp;&amp;nbsp;&amp;nbsp;&amp;nbsp;&amp;nbsp;&amp;nbsp;&amp;nbsp;&amp;nbsp;&amp;nbsp;&amp;nbsp;&amp;nbsp;&amp;nbsp; GPIO15" style="text;strokeColor=none;fillColor=none;align=left;verticalAlign=middle;spacingLeft=4;spacingRight=4;overflow=hidden;points=[[0,0.5],[1,0.5]];portConstraint=eastwest;rotatable=0;whiteSpace=wrap;html=1;" vertex="1" parent="9vF3Fy3m6nXQh0ZgnIpm-5">
          <mxGeometry y="60" width="160" height="30" as="geometry" />
        </mxCell>
        <mxCell id="9vF3Fy3m6nXQh0ZgnIpm-29" value="SCL ( 22 )&amp;nbsp;&amp;nbsp;&amp;nbsp;&amp;nbsp;&amp;nbsp;&amp;nbsp;&amp;nbsp;&amp;nbsp;&amp;nbsp;&amp;nbsp;&amp;nbsp;&amp;nbsp;&amp;nbsp; " style="text;strokeColor=none;fillColor=none;align=left;verticalAlign=middle;spacingLeft=4;spacingRight=4;overflow=hidden;points=[[0,0.5],[1,0.5]];portConstraint=eastwest;rotatable=0;whiteSpace=wrap;html=1;" vertex="1" parent="9vF3Fy3m6nXQh0ZgnIpm-5">
          <mxGeometry y="90" width="160" height="30" as="geometry" />
        </mxCell>
        <mxCell id="9vF3Fy3m6nXQh0ZgnIpm-25" value="GPIO12&amp;nbsp;&amp;nbsp;&amp;nbsp;&amp;nbsp;&amp;nbsp;&amp;nbsp;&amp;nbsp;&amp;nbsp;&amp;nbsp;&amp;nbsp;&amp;nbsp;&amp;nbsp;&amp;nbsp;&amp;nbsp;&amp;nbsp;&amp;nbsp;&amp;nbsp;&amp;nbsp; GPIO13" style="text;strokeColor=none;fillColor=none;align=left;verticalAlign=middle;spacingLeft=4;spacingRight=4;overflow=hidden;points=[[0,0.5],[1,0.5]];portConstraint=eastwest;rotatable=0;whiteSpace=wrap;html=1;" vertex="1" parent="9vF3Fy3m6nXQh0ZgnIpm-5">
          <mxGeometry y="120" width="160" height="30" as="geometry" />
        </mxCell>
        <mxCell id="9vF3Fy3m6nXQh0ZgnIpm-8" value="GPIO2" style="text;strokeColor=none;fillColor=none;align=left;verticalAlign=middle;spacingLeft=4;spacingRight=4;overflow=hidden;points=[[0,0.5],[1,0.5]];portConstraint=eastwest;rotatable=0;whiteSpace=wrap;html=1;" vertex="1" parent="9vF3Fy3m6nXQh0ZgnIpm-5">
          <mxGeometry y="150" width="160" height="30" as="geometry" />
        </mxCell>
        <mxCell id="9vF3Fy3m6nXQh0ZgnIpm-30" value="GND&amp;nbsp;&amp;nbsp;&amp;nbsp;&amp;nbsp;&amp;nbsp;&amp;nbsp;&amp;nbsp;&amp;nbsp;&amp;nbsp;&amp;nbsp;&amp;nbsp;&amp;nbsp;&amp;nbsp;&amp;nbsp;&amp;nbsp;&amp;nbsp;&amp;nbsp;&amp;nbsp;&amp;nbsp;&amp;nbsp;&amp;nbsp;&amp;nbsp;&amp;nbsp;&amp;nbsp;&amp;nbsp;&amp;nbsp;&amp;nbsp;&amp;nbsp;&amp;nbsp;&amp;nbsp; " style="text;strokeColor=none;fillColor=none;align=left;verticalAlign=middle;spacingLeft=4;spacingRight=4;overflow=hidden;points=[[0,0.5],[1,0.5]];portConstraint=eastwest;rotatable=0;whiteSpace=wrap;html=1;" vertex="1" parent="9vF3Fy3m6nXQh0ZgnIpm-5">
          <mxGeometry y="180" width="160" height="30" as="geometry" />
        </mxCell>
        <mxCell id="9vF3Fy3m6nXQh0ZgnIpm-44" value="" style="endArrow=none;html=1;rounded=0;exitX=1;exitY=0.5;exitDx=0;exitDy=0;entryX=0;entryY=0.5;entryDx=0;entryDy=0;edgeStyle=orthogonalEdgeStyle;" edge="1" parent="1" source="9vF3Fy3m6nXQh0ZgnIpm-21" target="9vF3Fy3m6nXQh0ZgnIpm-30">
          <mxGeometry width="50" height="50" relative="1" as="geometry">
            <mxPoint x="170" y="260" as="sourcePoint" />
            <mxPoint x="220" y="210" as="targetPoint" />
          </mxGeometry>
        </mxCell>
        <mxCell id="9vF3Fy3m6nXQh0ZgnIpm-45" value="" style="endArrow=none;html=1;rounded=0;exitX=1;exitY=0.5;exitDx=0;exitDy=0;entryX=0;entryY=0.5;entryDx=0;entryDy=0;edgeStyle=orthogonalEdgeStyle;" edge="1" parent="1" source="9vF3Fy3m6nXQh0ZgnIpm-3" target="9vF3Fy3m6nXQh0ZgnIpm-25">
          <mxGeometry width="50" height="50" relative="1" as="geometry">
            <mxPoint x="170" y="230" as="sourcePoint" />
            <mxPoint x="260" y="150" as="targetPoint" />
          </mxGeometry>
        </mxCell>
        <mxCell id="9vF3Fy3m6nXQh0ZgnIpm-46" value="" style="endArrow=none;html=1;rounded=0;exitX=1;exitY=0.5;exitDx=0;exitDy=0;entryX=0;entryY=0.5;entryDx=0;entryDy=0;edgeStyle=orthogonalEdgeStyle;" edge="1" parent="1" source="9vF3Fy3m6nXQh0ZgnIpm-19" target="9vF3Fy3m6nXQh0ZgnIpm-29">
          <mxGeometry width="50" height="50" relative="1" as="geometry">
            <mxPoint x="180" y="125" as="sourcePoint" />
            <mxPoint x="460" y="245" as="targetPoint" />
          </mxGeometry>
        </mxCell>
        <mxCell id="9vF3Fy3m6nXQh0ZgnIpm-47" value="" style="endArrow=none;html=1;rounded=0;exitX=1;exitY=0.5;exitDx=0;exitDy=0;entryX=0;entryY=0.5;entryDx=0;entryDy=0;edgeStyle=orthogonalEdgeStyle;" edge="1" parent="1" source="9vF3Fy3m6nXQh0ZgnIpm-4" target="9vF3Fy3m6nXQh0ZgnIpm-28">
          <mxGeometry width="50" height="50" relative="1" as="geometry">
            <mxPoint x="180" y="155" as="sourcePoint" />
            <mxPoint x="460" y="125" as="targetPoint" />
          </mxGeometry>
        </mxCell>
        <mxCell id="9vF3Fy3m6nXQh0ZgnIpm-49" value="" style="endArrow=none;html=1;rounded=0;exitX=1;exitY=0.5;exitDx=0;exitDy=0;entryX=0;entryY=0.5;entryDx=0;entryDy=0;edgeStyle=orthogonalEdgeStyle;" edge="1" parent="1" source="9vF3Fy3m6nXQh0ZgnIpm-20" target="9vF3Fy3m6nXQh0ZgnIpm-8">
          <mxGeometry width="50" height="50" relative="1" as="geometry">
            <mxPoint x="180" y="155" as="sourcePoint" />
            <mxPoint x="460" y="155" as="targetPoint" />
          </mxGeometry>
        </mxCell>
        <mxCell id="9vF3Fy3m6nXQh0ZgnIpm-50" value="" style="endArrow=none;html=1;rounded=0;exitX=1;exitY=0.5;exitDx=0;exitDy=0;" edge="1" parent="1" source="9vF3Fy3m6nXQh0ZgnIpm-24">
          <mxGeometry width="50" height="50" relative="1" as="geometry">
            <mxPoint x="180" y="215" as="sourcePoint" />
            <mxPoint x="280" y="235" as="targetPoint" />
          </mxGeometry>
        </mxCell>
        <mxCell id="9vF3Fy3m6nXQh0ZgnIpm-51" value="" style="pointerEvents=1;verticalLabelPosition=bottom;shadow=0;dashed=0;align=center;html=1;verticalAlign=top;shape=mxgraph.electrical.signal_sources.signal_ground;rotation=-90;" vertex="1" parent="1">
          <mxGeometry x="290" y="250" width="29" height="30" as="geometry" />
        </mxCell>
        <mxCell id="9vF3Fy3m6nXQh0ZgnIpm-63" value="" style="endArrow=none;html=1;rounded=0;exitX=1;exitY=0.5;exitDx=0;exitDy=0;edgeStyle=orthogonalEdgeStyle;" edge="1" parent="1" source="9vF3Fy3m6nXQh0ZgnIpm-2" target="9vF3Fy3m6nXQh0ZgnIpm-62">
          <mxGeometry width="50" height="50" relative="1" as="geometry">
            <mxPoint x="169.5" y="90" as="sourcePoint" />
            <mxPoint x="449.5" y="90" as="targetPoint" />
          </mxGeometry>
        </mxCell>
        <mxCell id="9vF3Fy3m6nXQh0ZgnIpm-77" value="" style="group" vertex="1" connectable="0" parent="1">
          <mxGeometry x="630" y="50" width="190" height="104" as="geometry" />
        </mxCell>
        <mxCell id="9vF3Fy3m6nXQh0ZgnIpm-74" value="" style="rounded=1;whiteSpace=wrap;html=1;" vertex="1" parent="9vF3Fy3m6nXQh0ZgnIpm-77">
          <mxGeometry y="4" width="190" height="100" as="geometry" />
        </mxCell>
        <mxCell id="9vF3Fy3m6nXQh0ZgnIpm-66" value="" style="group" vertex="1" connectable="0" parent="9vF3Fy3m6nXQh0ZgnIpm-77">
          <mxGeometry x="15.5" y="50" width="159" height="29" as="geometry" />
        </mxCell>
        <mxCell id="9vF3Fy3m6nXQh0ZgnIpm-67" value="" style="pointerEvents=1;verticalLabelPosition=bottom;shadow=0;dashed=0;align=center;html=1;verticalAlign=top;shape=mxgraph.electrical.signal_sources.signal_ground;rotation=-90;container=0;" vertex="1" parent="9vF3Fy3m6nXQh0ZgnIpm-66">
          <mxGeometry x="129.5" y="-0.5" width="29" height="30" as="geometry" />
        </mxCell>
        <mxCell id="9vF3Fy3m6nXQh0ZgnIpm-68" value="" style="verticalLabelPosition=bottom;shadow=0;dashed=0;align=center;html=1;verticalAlign=top;shape=mxgraph.electrical.opto_electronics.led_1;pointerEvents=1;rotation=0;container=0;" vertex="1" parent="9vF3Fy3m6nXQh0ZgnIpm-66">
          <mxGeometry y="1.5" width="50" height="24" as="geometry" />
        </mxCell>
        <mxCell id="9vF3Fy3m6nXQh0ZgnIpm-69" value="" style="edgeStyle=orthogonalEdgeStyle;rounded=0;orthogonalLoop=1;jettySize=auto;html=1;" edge="1" parent="9vF3Fy3m6nXQh0ZgnIpm-66" source="9vF3Fy3m6nXQh0ZgnIpm-70" target="9vF3Fy3m6nXQh0ZgnIpm-67">
          <mxGeometry relative="1" as="geometry" />
        </mxCell>
        <mxCell id="9vF3Fy3m6nXQh0ZgnIpm-70" value="" style="rounded=0;whiteSpace=wrap;html=1;rotation=0;container=0;" vertex="1" parent="9vF3Fy3m6nXQh0ZgnIpm-66">
          <mxGeometry x="74" y="4.5" width="31.66666666666667" height="20" as="geometry" />
        </mxCell>
        <mxCell id="9vF3Fy3m6nXQh0ZgnIpm-71" value="" style="endArrow=none;html=1;rounded=0;exitX=1;exitY=0.5;exitDx=0;exitDy=0;" edge="1" parent="9vF3Fy3m6nXQh0ZgnIpm-66" source="9vF3Fy3m6nXQh0ZgnIpm-70">
          <mxGeometry width="50" height="50" relative="1" as="geometry">
            <mxPoint x="233" y="64.5" as="sourcePoint" />
            <mxPoint x="130" y="14.5" as="targetPoint" />
          </mxGeometry>
        </mxCell>
        <mxCell id="9vF3Fy3m6nXQh0ZgnIpm-72" value="" style="endArrow=none;html=1;rounded=0;" edge="1" parent="9vF3Fy3m6nXQh0ZgnIpm-66">
          <mxGeometry width="50" height="50" relative="1" as="geometry">
            <mxPoint x="50" y="14.5" as="sourcePoint" />
            <mxPoint x="75" y="14.5" as="targetPoint" />
          </mxGeometry>
        </mxCell>
        <mxCell id="9vF3Fy3m6nXQh0ZgnIpm-75" value="RIGHT_LED" style="text;html=1;align=center;verticalAlign=middle;whiteSpace=wrap;rounded=0;" vertex="1" parent="9vF3Fy3m6nXQh0ZgnIpm-77">
          <mxGeometry x="47.5" width="95" height="40" as="geometry" />
        </mxCell>
        <mxCell id="9vF3Fy3m6nXQh0ZgnIpm-76" value="" style="endArrow=none;html=1;rounded=0;entryX=1;entryY=0.25;entryDx=0;entryDy=0;exitX=0;exitY=0.25;exitDx=0;exitDy=0;" edge="1" parent="9vF3Fy3m6nXQh0ZgnIpm-77" source="9vF3Fy3m6nXQh0ZgnIpm-74" target="9vF3Fy3m6nXQh0ZgnIpm-74">
          <mxGeometry width="50" height="50" relative="1" as="geometry">
            <mxPoint x="-140" y="-96" as="sourcePoint" />
            <mxPoint x="-90" y="-146" as="targetPoint" />
          </mxGeometry>
        </mxCell>
        <mxCell id="9vF3Fy3m6nXQh0ZgnIpm-78" value="" style="group" vertex="1" connectable="0" parent="1">
          <mxGeometry x="630" y="170" width="190" height="104" as="geometry" />
        </mxCell>
        <mxCell id="9vF3Fy3m6nXQh0ZgnIpm-79" value="" style="rounded=1;whiteSpace=wrap;html=1;" vertex="1" parent="9vF3Fy3m6nXQh0ZgnIpm-78">
          <mxGeometry y="4" width="190" height="100" as="geometry" />
        </mxCell>
        <mxCell id="9vF3Fy3m6nXQh0ZgnIpm-80" value="" style="group" vertex="1" connectable="0" parent="9vF3Fy3m6nXQh0ZgnIpm-78">
          <mxGeometry x="15.5" y="50" width="159" height="29" as="geometry" />
        </mxCell>
        <mxCell id="9vF3Fy3m6nXQh0ZgnIpm-81" value="" style="pointerEvents=1;verticalLabelPosition=bottom;shadow=0;dashed=0;align=center;html=1;verticalAlign=top;shape=mxgraph.electrical.signal_sources.signal_ground;rotation=-90;container=0;" vertex="1" parent="9vF3Fy3m6nXQh0ZgnIpm-80">
          <mxGeometry x="129.5" y="-0.5" width="29" height="30" as="geometry" />
        </mxCell>
        <mxCell id="9vF3Fy3m6nXQh0ZgnIpm-82" value="" style="verticalLabelPosition=bottom;shadow=0;dashed=0;align=center;html=1;verticalAlign=top;shape=mxgraph.electrical.opto_electronics.led_1;pointerEvents=1;rotation=0;container=0;" vertex="1" parent="9vF3Fy3m6nXQh0ZgnIpm-80">
          <mxGeometry y="1.5" width="50" height="24" as="geometry" />
        </mxCell>
        <mxCell id="9vF3Fy3m6nXQh0ZgnIpm-83" value="" style="edgeStyle=orthogonalEdgeStyle;rounded=0;orthogonalLoop=1;jettySize=auto;html=1;" edge="1" parent="9vF3Fy3m6nXQh0ZgnIpm-80" source="9vF3Fy3m6nXQh0ZgnIpm-84" target="9vF3Fy3m6nXQh0ZgnIpm-81">
          <mxGeometry relative="1" as="geometry" />
        </mxCell>
        <mxCell id="9vF3Fy3m6nXQh0ZgnIpm-84" value="" style="rounded=0;whiteSpace=wrap;html=1;rotation=0;container=0;" vertex="1" parent="9vF3Fy3m6nXQh0ZgnIpm-80">
          <mxGeometry x="74" y="4.5" width="31.66666666666667" height="20" as="geometry" />
        </mxCell>
        <mxCell id="9vF3Fy3m6nXQh0ZgnIpm-85" value="" style="endArrow=none;html=1;rounded=0;exitX=1;exitY=0.5;exitDx=0;exitDy=0;" edge="1" parent="9vF3Fy3m6nXQh0ZgnIpm-80" source="9vF3Fy3m6nXQh0ZgnIpm-84">
          <mxGeometry width="50" height="50" relative="1" as="geometry">
            <mxPoint x="233" y="64.5" as="sourcePoint" />
            <mxPoint x="130" y="14.5" as="targetPoint" />
          </mxGeometry>
        </mxCell>
        <mxCell id="9vF3Fy3m6nXQh0ZgnIpm-86" value="" style="endArrow=none;html=1;rounded=0;" edge="1" parent="9vF3Fy3m6nXQh0ZgnIpm-80">
          <mxGeometry width="50" height="50" relative="1" as="geometry">
            <mxPoint x="50" y="14.5" as="sourcePoint" />
            <mxPoint x="75" y="14.5" as="targetPoint" />
          </mxGeometry>
        </mxCell>
        <mxCell id="9vF3Fy3m6nXQh0ZgnIpm-87" value="LEFT_LED" style="text;html=1;align=center;verticalAlign=middle;whiteSpace=wrap;rounded=0;" vertex="1" parent="9vF3Fy3m6nXQh0ZgnIpm-78">
          <mxGeometry x="47.5" width="95" height="40" as="geometry" />
        </mxCell>
        <mxCell id="9vF3Fy3m6nXQh0ZgnIpm-88" value="" style="endArrow=none;html=1;rounded=0;entryX=1;entryY=0.25;entryDx=0;entryDy=0;exitX=0;exitY=0.25;exitDx=0;exitDy=0;" edge="1" parent="9vF3Fy3m6nXQh0ZgnIpm-78" source="9vF3Fy3m6nXQh0ZgnIpm-79" target="9vF3Fy3m6nXQh0ZgnIpm-79">
          <mxGeometry width="50" height="50" relative="1" as="geometry">
            <mxPoint x="-140" y="-96" as="sourcePoint" />
            <mxPoint x="-90" y="-146" as="targetPoint" />
          </mxGeometry>
        </mxCell>
        <mxCell id="9vF3Fy3m6nXQh0ZgnIpm-90" value="" style="endArrow=none;html=1;rounded=0;entryX=1;entryY=0.5;entryDx=0;entryDy=0;edgeStyle=orthogonalEdgeStyle;exitX=0;exitY=0.61;exitDx=0;exitDy=0;exitPerimeter=0;" edge="1" parent="1" source="9vF3Fy3m6nXQh0ZgnIpm-74" target="9vF3Fy3m6nXQh0ZgnIpm-28">
          <mxGeometry width="50" height="50" relative="1" as="geometry">
            <mxPoint x="480" y="250" as="sourcePoint" />
            <mxPoint x="530" y="200" as="targetPoint" />
          </mxGeometry>
        </mxCell>
        <mxCell id="9vF3Fy3m6nXQh0ZgnIpm-92" value="" style="endArrow=none;html=1;rounded=0;entryX=1;entryY=0.5;entryDx=0;entryDy=0;exitX=-0.005;exitY=0.6;exitDx=0;exitDy=0;exitPerimeter=0;edgeStyle=orthogonalEdgeStyle;" edge="1" parent="1" source="9vF3Fy3m6nXQh0ZgnIpm-79" target="9vF3Fy3m6nXQh0ZgnIpm-25">
          <mxGeometry width="50" height="50" relative="1" as="geometry">
            <mxPoint x="480" y="250" as="sourcePoint" />
            <mxPoint x="530" y="200" as="targetPoint" />
          </mxGeometry>
        </mxCell>
        <mxCell id="9vF3Fy3m6nXQh0ZgnIpm-94" value="" style="endArrow=none;html=1;rounded=0;exitX=1;exitY=0.5;exitDx=0;exitDy=0;entryX=0.5;entryY=0;entryDx=0;entryDy=0;entryPerimeter=0;" edge="1" parent="1" source="9vF3Fy3m6nXQh0ZgnIpm-21" target="9vF3Fy3m6nXQh0ZgnIpm-51">
          <mxGeometry width="50" height="50" relative="1" as="geometry">
            <mxPoint x="480" y="250" as="sourcePoint" />
            <mxPoint x="530" y="200" as="targetPoint" />
          </mxGeometry>
        </mxCell>
      </root>
    </mxGraphModel>
  </diagram>
</mxfile>
